<svg width="720" height="180" viewBox="0 0 720 180" fill="none" xmlns="http://www.w3.org/2000/svg">
  <rect x="0" y="10" width="160" height="160" rx="40" fill="#0F1722"/>
  <rect x="25" y="44" width="110" height="14" rx="7" fill="#E8EFF7" fill-opacity="0.12"/>
  <rect x="25" y="122" width="110" height="14" rx="7" fill="#E8EFF7" fill-opacity="0.12"/>
  <path d="M80 32L116 52V80C116 106.415 100.132 130.12 80 138.667C59.8684 130.12 44 106.415 44 80V52L80 32Z" fill="url(#paint0_linear_1_3)"/>
  <path d="M69 59H84.6667C93.3151 59 100.333 66.0175 100.333 74.6667C100.333 83.3151 93.3151 90.3333 84.6667 90.3333H76.3333V111H69V59ZM76.3333 83H84C88.6026 83 92.3333 79.2693 92.3333 74.6667C92.3333 70.0641 88.6026 66.3333 84 66.3333H76.3333V83Z" fill="#F7FAFC"/>
  <path d="M210 73.5H268C286.502 73.5 301.5 88.4985 301.5 107C301.5 125.502 286.502 140.5 268 140.5H236V170H210V73.5ZM236 117H264.5C270.851 117 276 111.851 276 105.5C276 99.1487 270.851 94 264.5 94H236V117Z" fill="#101820"/>
  <path d="M330 73.5H357V170H330V73.5Z" fill="#101820"/>
  <path d="M387 73.5H445C463.502 73.5 478.5 88.4985 478.5 107C478.5 125.502 463.502 140.5 445 140.5H413V170H387V73.5ZM413 117H441.5C447.851 117 453 111.851 453 105.5C453 99.1487 447.851 94 441.5 94H413V117Z" fill="#101820"/>
  <path d="M497 170L540.5 73.5H566L609.5 170H581L572.5 149.5H533L524.5 170H497ZM541.5 128.5H564L552.75 101L541.5 128.5Z" fill="#101820"/>
  <path d="M626 73.5H652V148H700V170H626V73.5Z" fill="#101820"/>
  <defs>
    <linearGradient id="paint0_linear_1_3" x1="44" y1="32" x2="116" y2="138.667" gradientUnits="userSpaceOnUse">
      <stop stop-color="#8AA8D8"/>
      <stop offset="1" stop-color="#4E6C99"/>
    </linearGradient>
  </defs>
</svg>
